<svg id="Calque_1" data-name="Calque 1" xmlns="http://www.w3.org/2000/svg" width="237.3" height="31.02" viewBox="0 0 237.3 31.02">
  <title>battletype</title>
  <g id="Welcome">
    <g id="Desktop-HD">
      <g id="Group-31">
        <g id="BATTLETYPE" style="isolation: isolate">
          <g style="isolation: isolate">
            <path d="M54.71,25.79v-21h7.24a13.67,13.67,0,0,1,3.52.39,6.7,6.7,0,0,1,2.39,1.12,4.33,4.33,0,0,1,1.37,1.75,5.9,5.9,0,0,1,.44,2.32,4.58,4.58,0,0,1-.22,1.41,4.09,4.09,0,0,1-.67,1.26,5.06,5.06,0,0,1-1.16,1.07,7,7,0,0,1-1.67.81q4.32,1,4.32,4.67a6,6,0,0,1-.51,2.46,5.44,5.44,0,0,1-1.48,2,7.07,7.07,0,0,1-2.39,1.28,10.45,10.45,0,0,1-3.25.46H54.71Zm3.9-11.89h3.12a5.22,5.22,0,0,0,3-.73,2.62,2.62,0,0,0,1-2.31,2.73,2.73,0,0,0-.93-2.33,4.85,4.85,0,0,0-2.9-.7H58.61V13.9Zm0,2.7v6.15h4a5.48,5.48,0,0,0,1.82-.26,3.17,3.17,0,0,0,1.17-.7,2.55,2.55,0,0,0,.64-1,3.83,3.83,0,0,0,.2-1.23,3.27,3.27,0,0,0-.22-1.23,2.29,2.29,0,0,0-.68-0.93,3.18,3.18,0,0,0-1.19-.59,6.6,6.6,0,0,0-1.75-.2H58.61Z" style="fill: #fff"/>
            <path d="M93.36,25.79h-3a1.32,1.32,0,0,1-.83-0.25A1.44,1.44,0,0,1,89,24.9l-1.57-4.28H78.79L77.23,24.9a1.38,1.38,0,0,1-.46.61,1.28,1.28,0,0,1-.83.28h-3l8.24-21h4ZM79.79,17.87h6.68l-2.55-7q-0.17-.46-0.38-1.09T83.13,8.43q-0.2.74-.4,1.38t-0.38,1.12Z" style="fill: #fff"/>
            <path d="M109.5,4.82V8H103.2V25.79H99.3V8H93V4.82H109.5Z" style="fill: #fff"/>
            <path d="M128.09,4.82V8h-6.31V25.79h-3.9V8h-6.34V4.82h16.54Z" style="fill: #fff"/>
            <path d="M135.81,22.57h8.4v3.22h-12.3v-21h3.9V22.57Z" style="fill: #fff"/>
            <path d="M161.46,4.82v3.1h-9.29v5.81h7.32v3h-7.32v5.93h9.29v3.12H148.23v-21h13.22Z" style="fill: #fff"/>
          </g>
          <text transform="translate(164.09 25.79)" style="font-size: 29px;fill: #fff;font-family: Lato;font-weight: 700;letter-spacing: 1px"> </text>
          <g style="isolation: isolate">
            <path d="M181.56,5V7.37h-6.71V25.79H172V7.37h-6.74V5h16.27Z" style="fill: #fff"/>
            <path d="M193.86,17.52v8.26h-2.8V17.52L183.45,5h2.46a0.87,0.87,0,0,1,.59.19,1.82,1.82,0,0,1,.38.46l4.76,8.08a10.19,10.19,0,0,1,.49,1q0.2,0.45.36,0.88,0.16-.45.35-0.9a8,8,0,0,1,.48-0.94L198,5.66a1.91,1.91,0,0,1,.36-0.44A0.83,0.83,0,0,1,199,5h2.49Z" style="fill: #fff"/>
            <path d="M208.52,18v7.77h-2.8V5h6.13a11.51,11.51,0,0,1,3.43.46,6.59,6.59,0,0,1,2.41,1.3,5.25,5.25,0,0,1,1.43,2,7.14,7.14,0,0,1,.47,2.65,6.78,6.78,0,0,1-.51,2.65,5.71,5.71,0,0,1-1.49,2.07,6.89,6.89,0,0,1-2.43,1.36,10.43,10.43,0,0,1-3.32.49h-3.33Zm0-2.23h3.33a6.48,6.48,0,0,0,2.12-.32,4.35,4.35,0,0,0,1.54-.89,3.72,3.72,0,0,0,.94-1.37,4.7,4.7,0,0,0,.32-1.75,4,4,0,0,0-1.22-3.1,5.35,5.35,0,0,0-3.71-1.12h-3.33v8.55Z" style="fill: #fff"/>
          </g>
          <text transform="translate(221.98 25.79)" style="font-size: 29px;fill: #fff;font-family: Lato;font-weight: 700;letter-spacing: 1px"> </text>
          <g style="isolation: isolate">
            <path d="M237.3,5V7.3h-10v6.9h8.08v2.2h-8.08V23.5h10v2.29H224.5V5h12.8Z" style="fill: #fff"/>
          </g>
        </g>
        <path id="Combined-Shape" d="M7.9,13.26A15,15,0,0,1,32.76,3.78C39.23,2.84,44,3.61,45,6.19s-2,6.23-7.22,9.8A15,15,0,0,1,12.39,25.8C5.94,26.73,1.17,26,.19,23.39S2.32,16.93,7.9,13.26Zm0,0A15,15,0,0,0,12.2,25.61l0.19,0.19a62.18,62.18,0,0,0,13.07-3.54A61.76,61.76,0,0,0,37.77,16,15,15,0,0,0,33.41,4.39q-0.32-.32-0.65-0.61a62.22,62.22,0,0,0-13,3.54A62.64,62.64,0,0,0,7.9,13.26Z" style="fill: #009089"/>
      </g>
    </g>
  </g>
</svg>
