<?xml version="1.0" encoding="UTF-8"?>
<svg width="25px" height="30px" viewBox="0 0 25 30" version="1.1" xmlns="http://www.w3.org/2000/svg" xmlns:xlink="http://www.w3.org/1999/xlink">
    <!-- Generator: Sketch 40.3 (33839) - http://www.bohemiancoding.com/sketch -->
    <title>Group 49</title>
    <desc>Created with Sketch.</desc>
    <defs></defs>
    <g id="Welcome" stroke="none" stroke-width="1" fill="none" fill-rule="evenodd">
        <g id="Desktop-HD" transform="translate(-586.000000, -659.000000)">
            <g id="Group-49" transform="translate(586.000000, 659.000000)">
                <g id="Group-45">
                    <g id="shield">
                        <path d="M12.4367911,2.38200362 L12.4406738,2.38342391 L12.4406738,2.38200362 L12.4367911,2.38200362 L12.4367911,2.38200362 Z M12.4475804,2.38200362 L12.4392178,2.38200362 L12.4431004,2.38342391 L12.4475804,2.38200362 L12.4475804,2.38200362 Z M12.4444444,2.38519928 L12.4392178,2.38342391 L12.4392178,2.38431159 C12.2294044,2.46065217 2.38684444,6.05664855 2.40541778,6.04892572 C2.39729778,6.05576087 2.40541778,10.6543043 2.40541778,13.0676431 C2.40541778,17.9284076 3.42088444,24.5558351 12.4367911,26.9292283 L12.4444444,26.9292283 L12.4444444,2.38519928 L12.4444444,2.38519928 Z" id="Shape" fill="#3AAA96"></path>
                        <path d="M24.8689778,4.65357971 C24.8904444,4.66219022 12.7588844,0.219967391 12.4549911,0.108208333 L12.4549911,0.109096014 C12.2065378,0.199994565 0.00749777778,4.66219022 0.0295244444,4.65357971 C0.0200044444,4.66130254 0.0295244444,10.1429112 0.0295244444,13.0189982 C0.0295244444,18.8128931 1.77233778,26.3911159 12.4521911,29.2030236 L12.4636711,29.2030236 C23.1282178,26.3905833 24.8686044,18.6919909 24.8686044,13.0189982 C24.8689778,10.1429112 24.8789644,4.66130254 24.8689778,4.65357971 L24.8689778,4.65357971 L24.8689778,4.65357971 Z" id="Shape" fill="#F9F9F9"></path>
                        <path d="M12.4367911,2.38200362 L12.4406738,2.38342391 L12.4406738,2.38200362 L12.4367911,2.38200362 L12.4367911,2.38200362 Z M22.4629378,6.21749638 C22.4816044,6.22566304 12.6982178,2.47751812 12.4392178,2.38298007 L12.4392178,2.38386775 C12.2294044,2.46020833 2.38684444,6.05620471 2.40541778,6.04848188 C2.39729778,6.05531703 2.40541778,10.6538605 2.40541778,13.0671993 C2.40541778,17.9279638 3.42088444,24.5553913 12.4367911,26.9287844 L12.4468711,26.9287844 C21.4503644,24.5553025 22.4777778,17.8270344 22.4777778,13.0671105 C22.4777778,10.6537717 22.4719911,6.22379891 22.4629378,6.21749638 L22.4629378,6.21749638 L22.4629378,6.21749638 Z M12.4475804,2.38200362 L12.4392178,2.38200362 L12.4431004,2.38342391 L12.4475804,2.38200362 L12.4475804,2.38200362 Z" id="Shape" fill="#3DB39E"></path>
                        <path d="M0.0294311111,4.65357971 C0.0199111111,4.66130254 0.0294311111,10.1429112 0.0294311111,13.0189982 C0.0294311111,18.811029 1.77177778,26.3860562 12.4429511,29.2007156 L12.4444444,29.2007156 L12.4444444,0.113179348 C12.0630844,0.252722826 0.00796444444,4.66219022 0.0294311111,4.65357971 L0.0294311111,4.65357971 Z" id="Shape" fill="#ECECEC"></path>
                        <path d="M12.4367911,2.38200362 L12.4406738,2.38342391 L12.4406738,2.38200362 L12.4367911,2.38200362 L12.4367911,2.38200362 Z M12.4444444,2.38519928 L12.4392178,2.38342391 L12.4392178,2.38431159 C12.2294044,2.46065217 2.38684444,6.05664855 2.40541778,6.04892572 C2.39729778,6.05576087 2.40541778,10.6543043 2.40541778,13.0676431 C2.40541778,17.9284076 3.42088444,24.5558351 12.4367911,26.9292283 L12.4444444,26.9292283 L12.4444444,2.38519928 L12.4444444,2.38519928 Z M12.4475804,2.38200362 L12.4392178,2.38200362 L12.4431004,2.38342391 L12.4475804,2.38200362 L12.4475804,2.38200362 Z" id="Shape" fill="#3AAA96"></path>
                    </g>
                </g>
                <g id="Group-48-Copy" transform="translate(6.000000, 10.000000)" fill="#1B816F">
                    <path d="M6.43757503,11.7129968 L0,4 L12.8751501,4 L6.43757503,11.7129968 Z M12.8751501,4 L0,4 L2.21985346,0 L10.6552966,0 L12.8751501,4 Z" id="Combined-Shape"></path>
                </g>
                <g id="Group-48" transform="translate(6.000000, 9.000000)" fill="#F9F9F9">
                    <path d="M6.43757503,11.7129968 L0,4 L12.8751501,4 L6.43757503,11.7129968 Z M12.8751501,4 L0,4 L2.21985346,0 L10.6552966,0 L12.8751501,4 Z" id="Combined-Shape"></path>
                </g>
            </g>
        </g>
    </g>
</svg>