<?xml version="1.0" encoding="UTF-8"?>
<svg width="28px" height="28px" viewBox="0 0 28 28" version="1.1" xmlns="http://www.w3.org/2000/svg" xmlns:xlink="http://www.w3.org/1999/xlink">
    <!-- Generator: Sketch 40.3 (33839) - http://www.bohemiancoding.com/sketch -->
    <title>Group 50</title>
    <desc>Created with Sketch.</desc>
    <defs></defs>
    <g id="Welcome" stroke="none" stroke-width="1" fill="none" fill-rule="evenodd">
        <g id="Desktop-HD" transform="translate(-622.000000, -660.000000)">
            <g id="Group-50" transform="translate(622.000000, 660.000000)">
                <circle id="Oval-11" fill="#F9F9F9" cx="14" cy="14" r="14"></circle>
                <circle id="Oval-11" fill="#FF4D4D" cx="14" cy="14" r="11.9259259"></circle>
                <g id="attack-plane" transform="translate(7.259259, 8.296296)" fill="#C31C1C">
                    <path d="M13.4108945,0.741608068 C13.4973795,0.560209355 13.4599238,0.344315771 13.3172872,0.202285516 C13.1745234,0.0603185533 12.9575479,0.0230387759 12.7754207,0.109117719 C12.6601286,0.163613285 9.92421454,1.47087393 7.51904193,3.86475465 C7.10162474,4.28021214 6.65374703,4.76890002 6.19836548,5.29315875 L3.58321244,5.02808625 L4.61149336,4.00463293 C4.79775402,3.81918345 4.79775402,3.51866667 4.61149336,3.33328047 C4.42516911,3.14795757 4.1232348,3.14795757 3.93697414,3.33328047 L2.35881412,4.9040313 L0.525269043,4.71820205 C0.362346611,4.7015559 0.202858141,4.76927978 0.101874214,4.89719562 C0.000890286513,5.02511146 -0.0271537386,5.19568701 0.0274081062,5.34904677 L1.94610273,10.7360063 C1.77090706,10.9785463 1.6622921,11.1315263 1.63920825,11.1641224 C1.50547449,11.3528632 1.52766806,11.610024 1.69173515,11.7733841 C1.78407058,11.8652227 1.90616702,11.9123763 2.02915374,11.9123763 C2.12479595,11.9123763 2.22094689,11.883831 2.30387072,11.8256644 C2.33662055,11.8026889 2.49032215,11.6945839 2.73400629,11.5201475 L8.14631237,13.4297708 C8.19820335,13.4480626 8.25206569,13.4570503 8.30561006,13.4570503 L8.30815374,13.4570503 C8.57104263,13.4564173 8.7838211,13.2441315 8.7838211,12.9823502 C8.7838211,12.9538682 8.78134102,12.9260191 8.77650804,12.8989296 L8.59342697,11.1093737 L10.171587,9.53862285 C10.3578477,9.35317336 10.3578477,9.05265658 10.171587,8.86727039 C9.98526275,8.68194749 9.68332844,8.68194749 9.49706778,8.86727039 L8.46878686,9.8907237 L8.20246401,7.28791167 C8.72919567,6.83460476 9.22018868,6.38882977 9.63766946,5.97337228 C12.0427785,3.57942827 13.3561419,0.856358894 13.4108945,0.741608068 L13.4108945,0.741608068 Z M6.19779315,7.95970718 L4.40240321,9.74673135 C4.30924109,9.83945609 4.18714465,9.88578682 4.06511181,9.88578682 C3.94307897,9.88578682 3.82098253,9.83945609 3.727884,9.74679464 C3.54155975,9.56134516 3.54155975,9.26082838 3.72782041,9.07550548 L5.52321034,7.28848131 C5.70953459,7.10303182 6.01153249,7.10309511 6.19766597,7.28841801 C6.38405381,7.4738675 6.38405381,7.77438428 6.19779315,7.95970718 L6.19779315,7.95970718 Z" id="Shape"></path>
                </g>
                <g id="attack-plane" transform="translate(7.259259, 7.259259)" fill="#FFFFFF">
                    <path d="M13.4108945,0.741608068 C13.4973795,0.560209355 13.4599238,0.344315771 13.3172872,0.202285516 C13.1745234,0.0603185533 12.9575479,0.0230387759 12.7754207,0.109117719 C12.6601286,0.163613285 9.92421454,1.47087393 7.51904193,3.86475465 C7.10162474,4.28021214 6.65374703,4.76890002 6.19836548,5.29315875 L3.58321244,5.02808625 L4.61149336,4.00463293 C4.79775402,3.81918345 4.79775402,3.51866667 4.61149336,3.33328047 C4.42516911,3.14795757 4.1232348,3.14795757 3.93697414,3.33328047 L2.35881412,4.9040313 L0.525269043,4.71820205 C0.362346611,4.7015559 0.202858141,4.76927978 0.101874214,4.89719562 C0.000890286513,5.02511146 -0.0271537386,5.19568701 0.0274081062,5.34904677 L1.94610273,10.7360063 C1.77090706,10.9785463 1.6622921,11.1315263 1.63920825,11.1641224 C1.50547449,11.3528632 1.52766806,11.610024 1.69173515,11.7733841 C1.78407058,11.8652227 1.90616702,11.9123763 2.02915374,11.9123763 C2.12479595,11.9123763 2.22094689,11.883831 2.30387072,11.8256644 C2.33662055,11.8026889 2.49032215,11.6945839 2.73400629,11.5201475 L8.14631237,13.4297708 C8.19820335,13.4480626 8.25206569,13.4570503 8.30561006,13.4570503 L8.30815374,13.4570503 C8.57104263,13.4564173 8.7838211,13.2441315 8.7838211,12.9823502 C8.7838211,12.9538682 8.78134102,12.9260191 8.77650804,12.8989296 L8.59342697,11.1093737 L10.171587,9.53862285 C10.3578477,9.35317336 10.3578477,9.05265658 10.171587,8.86727039 C9.98526275,8.68194749 9.68332844,8.68194749 9.49706778,8.86727039 L8.46878686,9.8907237 L8.20246401,7.28791167 C8.72919567,6.83460476 9.22018868,6.38882977 9.63766946,5.97337228 C12.0427785,3.57942827 13.3561419,0.856358894 13.4108945,0.741608068 L13.4108945,0.741608068 Z M6.19779315,7.95970718 L4.40240321,9.74673135 C4.30924109,9.83945609 4.18714465,9.88578682 4.06511181,9.88578682 C3.94307897,9.88578682 3.82098253,9.83945609 3.727884,9.74679464 C3.54155975,9.56134516 3.54155975,9.26082838 3.72782041,9.07550548 L5.52321034,7.28848131 C5.70953459,7.10303182 6.01153249,7.10309511 6.19766597,7.28841801 C6.38405381,7.4738675 6.38405381,7.77438428 6.19779315,7.95970718 L6.19779315,7.95970718 Z" id="Shape"></path>
                </g>
            </g>
        </g>
    </g>
</svg>